<svg width="52" height="32" viewBox="0 0 52 32" fill="none" xmlns="http://www.w3.org/2000/svg">
<path d="M23.7889 2.45779C13.6639 2.80964 5.49734 3.17537 3.67791 3.29574C1.85849 3.41611 0.534423 4.3837 0.534423 6.6846C0.534423 8.98551 2.22885 9.71236 4.16402 9.71236C6.09919 9.71236 17.8398 9.71236 17.8398 9.71236C17.8398 9.71236 18.7657 10.0966 17.4509 10.7864C16.5898 11.2355 15.9973 12.5225 16.2843 13.8327C16.5389 14.9716 17.1593 16.2262 18.9417 16.4901C20.5018 16.7216 19.0574 17.504 18.3583 18.2401C17.9232 18.6984 17.2658 19.9299 17.4509 21.0919C17.6917 22.5872 18.488 23.9437 20.0435 24.203C21.5991 24.4622 20.3028 25.3048 19.6546 25.7585C19.0065 26.2122 18.488 27.5733 18.9417 28.8696C19.3954 30.1659 20.3028 31.5918 22.4416 31.6566C24.5805 31.7214 34.5527 32.7585 39.9971 30.8788C45.4414 28.9992 51.4599 24.9715 51.4599 15.1892C51.4599 5.40684 41.8072 -0.486635 35.6545 0.0318798C29.5018 0.550395 29.9508 2.24483 23.7889 2.45779Z" fill="#FAC036"/>
<mask id="mask0_20_426" style="mask-type:luminance" maskUnits="userSpaceOnUse" x="0" y="0" width="52" height="32">
<path d="M23.7889 2.45779C13.6084 3.41149 5.49734 3.17537 3.67791 3.29574C1.86774 3.41611 0.534423 4.3837 0.534423 6.6846C0.534423 8.98551 2.22885 9.71236 4.16402 9.71236C6.09919 9.71236 17.8398 9.71236 17.8398 9.71236C17.8398 9.71236 18.7657 10.0966 17.4509 10.7864C16.5898 11.2355 15.9973 12.5225 16.2843 13.8327C16.5389 14.9716 17.1593 16.2262 18.9417 16.4901C20.5018 16.7216 19.0574 17.504 18.3583 18.2401C17.9232 18.6984 17.2658 19.9299 17.4509 21.0919C17.6917 22.5872 18.488 23.9437 20.0435 24.203C21.5991 24.4622 20.3028 25.3048 19.6546 25.7585C19.0065 26.2122 18.488 27.5733 18.9417 28.8696C19.3954 30.1659 20.3028 31.5918 22.4416 31.6566C24.5805 31.7214 34.5527 32.7585 39.9971 30.8788C45.4414 28.9992 51.4599 24.9715 51.4599 15.1892C51.4599 5.40684 41.8072 -0.486635 35.6545 0.0318798C29.5018 0.550395 26.8629 2.17075 23.7889 2.45779Z" fill="white"/>
</mask>
<g mask="url(#mask0_20_426)">
<path d="M29.8118 5.1196C29.8118 5.1196 29.7516 5.27237 29.622 5.54552C29.5016 5.80015 29.321 6.17051 29.0942 6.64736C28.8673 7.11495 28.5988 7.6705 28.3488 8.33253C28.1035 8.99456 27.9044 9.77233 27.7747 10.6658C27.6359 11.5408 27.5896 12.5362 27.5757 13.5917C27.5618 14.6519 27.5849 15.7769 27.6359 16.9297C27.6636 17.5038 27.7007 18.0917 27.7701 18.6565C27.7886 18.7954 27.8025 18.9389 27.8303 19.0593L27.8488 19.1565L27.8488 19.1704C27.8442 19.1565 27.8581 19.2167 27.8442 19.1426L27.8535 19.1704L27.8673 19.226C27.8859 19.2908 27.9044 19.4019 27.9229 19.425C27.946 19.4898 27.9831 19.5778 28.0294 19.6704C28.0803 19.7537 28.1312 19.8324 28.1868 19.9019C28.4229 20.1797 28.7701 20.3371 29.2146 20.3695C29.6544 20.4019 30.1914 20.3 30.6405 20.1102C31.071 19.925 31.4784 19.6148 31.7932 19.2352C32.1034 18.8463 32.3442 18.3926 32.4923 17.8973C32.5617 17.6473 32.6173 17.3973 32.6451 17.1334C32.659 17.0038 32.6775 16.8741 32.6775 16.7445C32.6821 16.6195 32.6867 16.4852 32.6867 16.3232C32.6867 15.7167 32.6914 15.1149 32.6914 14.5269C32.7006 13.9343 32.696 13.2816 32.8904 12.5825C33.1127 11.8325 33.4691 11.351 33.8164 10.8649C34.1728 10.3881 34.5664 9.95752 35.0154 9.58252C35.4645 9.21215 35.9691 8.87419 36.5895 8.70753C36.7423 8.66586 36.9043 8.63346 37.071 8.6242L37.1312 8.61957L37.2145 8.61494L37.3024 8.61494L37.4737 8.61494C37.6126 8.62419 37.77 8.63808 37.9089 8.65197C38.0385 8.67512 38.1682 8.69827 38.2932 8.72142C38.7932 8.83253 39.233 9.02697 39.6126 9.24919C40.3811 9.689 40.9043 10.2538 41.2607 10.7446C41.6219 11.2399 41.8024 11.6797 41.9228 11.9714C42.02 12.2723 42.0709 12.4343 42.0709 12.4343C42.1357 12.6334 42.0246 12.8464 41.8256 12.9112C41.6635 12.9621 41.4922 12.9019 41.3996 12.7723L41.3811 12.7445C41.3811 12.7445 41.2931 12.6242 41.1357 12.3973C40.9644 12.1797 40.7237 11.8603 40.3626 11.5177C40.0015 11.1797 39.5293 10.8094 38.9367 10.5362C38.6404 10.402 38.3163 10.2908 37.9737 10.226C37.8904 10.2121 37.8024 10.2029 37.7145 10.189C37.6404 10.1844 37.5617 10.1797 37.483 10.1751L37.3117 10.1797L37.2237 10.1797L37.2006 10.1797C37.1636 10.1797 37.2376 10.1797 37.2284 10.1797L37.2237 10.1797L37.2006 10.1844C37.1358 10.189 37.0663 10.2075 36.9969 10.226C36.3997 10.3973 35.6728 11.0547 35.1126 11.8371C34.8395 12.226 34.5525 12.6843 34.4738 13.0316C34.3673 13.4297 34.3673 13.9529 34.3719 14.5362C34.3812 15.1241 34.3904 15.726 34.3997 16.3325C34.409 16.9667 34.3488 17.7121 34.1497 18.3973C33.9506 19.0917 33.6127 19.7676 33.1404 20.3556C32.6636 20.9435 32.0479 21.4296 31.3256 21.7445C30.6173 22.0407 29.8905 22.2028 29.0757 22.1519C28.2794 22.1056 27.3859 21.7352 26.8257 21.0454C26.6868 20.8787 26.5664 20.6982 26.4646 20.513C26.372 20.3278 26.284 20.1334 26.2192 19.9065C26.1775 19.7861 26.1775 19.7445 26.1544 19.6611L26.1405 19.6056L26.1174 19.5037L26.0942 19.3741C26.0618 19.1982 26.0433 19.0361 26.0248 18.8741C25.9507 18.2306 25.9183 17.6241 25.8905 17.0223C25.8396 15.8186 25.8396 14.6658 25.872 13.564C25.909 12.4621 25.9785 11.4066 26.1451 10.4205C26.3025 9.44826 26.5479 8.54549 26.8442 7.77698C27.1359 7.00384 27.5062 6.37885 27.8535 5.90663C28.2007 5.43904 28.534 5.11034 28.7609 4.89737C28.9923 4.70293 29.122 4.60571 29.122 4.60571C29.3257 4.4622 29.6034 4.50849 29.747 4.71219C29.8488 4.8233 29.8627 4.98534 29.8118 5.1196Z" fill="#E48C15"/>
<path d="M17.9183 9.56884L26.6728 8.21237C27.2145 8.12903 27.7237 8.4994 27.8071 9.04106C27.8904 9.58273 27.52 10.092 26.9784 10.1753C26.946 10.1799 26.9089 10.1846 26.8719 10.1846L18.0247 10.6244C17.7331 10.6383 17.4831 10.4161 17.4692 10.1244C17.4553 9.84661 17.6544 9.61513 17.9183 9.56884Z" fill="#E48C15"/>
<path d="M19.4181 16.3374L25.9041 15.2772C26.4458 15.1893 26.9597 15.555 27.0476 16.0967C27.1356 16.6383 26.7699 17.1522 26.2282 17.2402C26.1865 17.2448 26.1402 17.2494 26.0986 17.2541L19.5292 17.467C19.2144 17.4763 18.9551 17.2309 18.9412 16.9161C18.932 16.6244 19.1403 16.3791 19.4181 16.3374Z" fill="#E48C15"/>
<path d="M20.7517 24.1613C20.7517 24.1613 21.474 24.1104 22.5619 24.0317C23.1036 23.99 23.7332 23.9437 24.4091 23.8928C25.0804 23.8372 25.798 23.777 26.4971 23.6844C26.8489 23.6428 27.1915 23.5872 27.5248 23.527C27.6961 23.5039 27.8489 23.4576 28.0063 23.4252C28.1683 23.3928 28.3165 23.3511 28.4554 23.3048C28.747 23.2261 28.9878 23.115 29.1915 23.0085C29.2748 22.9437 29.3813 22.8974 29.4461 22.8372C29.497 22.7724 29.5711 22.7261 29.6128 22.6706C29.6406 22.6104 29.6776 22.5594 29.71 22.5132C29.7239 22.453 29.7424 22.3974 29.7609 22.3465C29.7887 22.2307 29.7887 22.115 29.8026 22.0178C29.7841 21.7909 29.7841 21.6659 29.7841 21.6659L29.7841 21.4946C29.7794 20.9484 30.2193 20.4993 30.7702 20.4993C31.3165 20.4947 31.7655 20.9345 31.7655 21.4854C31.7655 21.4946 31.7655 21.5132 31.7655 21.5224C31.7655 21.5224 31.7563 21.7585 31.747 22.1659C31.71 22.3789 31.6729 22.652 31.5665 22.953C31.5016 23.1057 31.4276 23.2678 31.3442 23.4344C31.2378 23.5872 31.1128 23.7446 30.9831 23.902C30.8442 24.0455 30.6776 24.1659 30.5155 24.2955C30.3489 24.4159 30.173 24.49 29.9924 24.5872C29.6359 24.7446 29.2563 24.865 28.8859 24.9391C28.6961 24.9854 28.5109 25.0178 28.3257 25.0409C28.1406 25.0641 27.9461 25.1011 27.7609 25.115C27.3859 25.1474 27.0063 25.1844 26.6359 25.1937C25.8906 25.2307 25.1591 25.2307 24.4739 25.2354C23.7934 25.2307 23.1545 25.2261 22.6082 25.2261C21.5203 25.2168 20.7934 25.2122 20.7934 25.2122C20.5017 25.2122 20.2703 24.9715 20.2703 24.6844C20.2703 24.4067 20.4832 24.1844 20.7517 24.1613Z" fill="#E48C15"/>
</g>
<mask id="mask1_20_426" style="mask-type:luminance" maskUnits="userSpaceOnUse" x="0" y="0" width="52" height="32">
<path d="M23.7889 2.45779C13.6084 3.41149 5.49734 3.17537 3.67791 3.29574C1.86774 3.41611 0.534423 4.3837 0.534423 6.6846C0.534423 8.98551 2.22885 9.71236 4.16402 9.71236C6.09919 9.71236 17.8398 9.71236 17.8398 9.71236C17.8398 9.71236 18.7657 10.0966 17.4509 10.7864C16.5898 11.2355 15.9973 12.5225 16.2843 13.8327C16.5389 14.9716 17.1593 16.2262 18.9417 16.4901C20.5018 16.7216 19.0574 17.504 18.3583 18.2401C17.9232 18.6984 17.2658 19.9299 17.4509 21.0919C17.6917 22.5872 18.488 23.9437 20.0435 24.203C21.5991 24.4622 20.3028 25.3048 19.6546 25.7585C19.0065 26.2122 18.488 27.5733 18.9417 28.8696C19.3954 30.1659 20.3028 31.5918 22.4416 31.6566C24.5805 31.7214 34.5527 32.7585 39.9971 30.8788C45.4414 28.9992 51.4599 24.9715 51.4599 15.1892C51.4599 5.40684 41.8072 -0.486635 35.6545 0.0318798C29.5018 0.550395 26.8629 2.17075 23.7889 2.45779Z" fill="white"/>
</mask>
<g mask="url(#mask1_20_426)">
<path d="M25.0065 23.8375C25.0065 23.8375 25.0806 23.8329 25.2241 23.8283C25.363 23.819 25.576 23.8144 25.8584 23.8144C26.4139 23.819 27.2056 23.8236 28.1824 24.0088C28.6685 24.106 29.2056 24.2357 29.775 24.4903C30.3306 24.7495 30.9463 25.1662 31.3676 25.8282C31.7935 26.4903 31.9185 27.2819 31.9093 27.9625C31.8815 28.7727 31.5852 29.4995 31.1407 30.106C30.6917 30.7078 30.113 31.1615 29.525 31.4856C28.9324 31.8143 28.3213 32.0458 27.7287 32.1986C26.5389 32.5041 25.4325 32.5921 24.4927 32.6245C23.5529 32.643 22.7751 32.5921 22.2334 32.5597C21.6964 32.5087 21.3862 32.481 21.3862 32.481C21.1131 32.4532 20.914 32.2124 20.9371 31.9393C20.9603 31.6847 21.1732 31.4949 21.4232 31.4902L21.4418 31.4902C21.4418 31.4902 21.7427 31.4856 22.2658 31.481C22.789 31.4717 23.5343 31.4532 24.414 31.3606C25.2889 31.2773 26.3121 31.1291 27.3167 30.805C27.8167 30.6384 28.3121 30.4393 28.7565 30.1662C29.2009 29.9023 29.5852 29.5643 29.8537 29.1801C30.1176 28.8004 30.2658 28.3375 30.2611 27.9486C30.2611 27.4393 30.1732 27.018 29.9741 26.7171C29.7796 26.4116 29.4556 26.1662 29.0667 25.9903C28.6871 25.8005 28.2611 25.6755 27.8584 25.5829C27.0436 25.4069 26.3121 25.3375 25.8075 25.3005C25.2889 25.2681 24.988 25.2495 24.988 25.2495C24.5991 25.2264 24.3028 24.8884 24.326 24.4995C24.3538 24.1384 24.6501 23.856 25.0065 23.8375Z" fill="#E48C15"/>
</g>
</svg>
