<svg width="64" height="64" viewBox="0 0 64 64" fill="none" xmlns="http://www.w3.org/2000/svg">
<path d="M53.6321 10.3676C47.7441 4.54361 40.5121 1.59961 32.0001 1.59961C23.7441 1.59961 16.5121 4.54361 10.4321 10.3676C4.5441 16.2556 1.6001 23.4876 1.6001 31.9996C1.6001 40.5116 4.5441 47.7436 10.4321 53.5676C16.2561 59.4556 23.4881 62.6556 32.0001 62.6556C40.5121 62.6556 47.7441 59.7116 53.6321 53.5676C59.4561 47.7436 62.4001 40.5116 62.4001 31.9996C62.4001 23.4876 59.4561 16.2556 53.6321 10.3676ZM51.7121 12.2876C57.0881 17.8556 59.7121 24.2556 59.7121 31.9996C59.7121 39.7436 57.0881 46.3996 51.7121 51.7116C46.4001 57.0876 39.7441 60.0316 32.0001 60.0316C24.2561 60.0316 17.8561 57.3436 12.5441 51.7116C7.2321 46.3996 4.2881 39.7436 4.2881 31.9996C4.2881 24.2556 6.9121 17.8556 12.5441 12.2876C17.8561 6.91161 24.5121 3.96761 32.0001 3.96761C39.7441 3.96761 46.1441 6.91161 51.7121 12.2876ZM28.0321 25.0876V41.0876L41.0881 33.0876L28.0321 25.0876Z" fill="#E6E6E6"/>
</svg>
