<svg width="242" height="88" viewBox="0 0 242 88" fill="none" xmlns="http://www.w3.org/2000/svg">
<path fill-rule="evenodd" clip-rule="evenodd" d="M97.3932 71.6674C98.0865 70.7254 98.5358 69.588 99.5212 68.8801C102.057 67.0587 104.768 65.3673 107.524 63.7347C111.362 61.4611 112.788 56.4592 110.022 53.3908C106.843 49.8639 102.256 48.0344 96.5814 47.9534C95.6061 47.9399 94.623 48.2431 93.5183 48.4197C94.2718 54.4617 97.3959 60.0296 97.5312 65.9402C97.2566 66.0001 96.9821 66.06 96.7074 66.12C95.5258 63.7204 94.3444 61.3207 93.1631 58.921C93.2969 58.8778 93.4308 58.8347 93.5644 58.7915C94.3097 60.0959 95.0546 61.4006 95.7998 62.7045C95.9498 62.6755 96.0999 62.6467 96.2503 62.6176C94.9489 58.1415 93.6475 53.6653 92.2621 48.9008C90.8424 49.7849 89.6783 50.51 88.5141 51.2351C88.3606 51.1851 88.2073 51.1349 88.0539 51.0851C88.0918 50.6262 88.0579 50.1564 88.1801 49.7112C88.6972 47.8284 89.1661 45.9337 89.8286 44.0795C90.9441 40.9581 89.6154 37.9994 88.9766 34.9903C88.901 34.6339 88.7905 34.2814 88.7268 33.9237C88.7112 33.8354 88.8161 33.7344 89.0908 33.206C89.7308 34.083 90.1886 34.7104 90.8195 35.5746C90.6433 32.5236 91.3787 29.654 89.3488 26.9268C86.4029 28.5018 86.5997 31.0826 85.27 33.1112C84.89 30.6146 85.5854 28.334 87.6544 26.3676C88.5592 25.5081 89.8819 25.4316 90.5259 26.4438C91.3655 27.7635 92.2112 29.2327 92.2696 30.6557C92.4042 33.9304 91.8968 37.2189 91.975 40.497C92.0287 42.7518 92.6277 44.9991 92.9936 47.3161C100.495 46.1516 106.055 48.3741 110.697 52.2491C112.922 54.1069 112.748 56.4696 112.419 58.7801C112.312 59.538 112.076 60.2852 111.855 61.2233C115.368 59.6106 118.564 57.9863 121.944 56.6223C130.001 53.3712 137.997 49.9984 146.291 47.1305C155.499 43.9466 165.544 43.0829 175.48 41.9956C180.964 41.3955 186.481 40.7042 191.801 39.5633C198.427 38.1421 201.943 34.2236 202.25 28.9842C202.527 24.2445 201.304 19.6534 199.957 15.0712C199.78 14.469 199.574 13.8719 199.321 13.0838C198.476 13.3237 197.717 13.5001 197.002 13.7477C187.2 17.1407 177.319 20.41 167.632 23.9828C158.381 27.3947 149.338 31.1307 140.186 34.6987C139.723 34.879 139.093 34.813 138.541 34.8619C138.46 34.7006 138.378 34.5395 138.296 34.3783C138.889 34.0167 139.421 33.5642 140.084 33.3072C150.047 29.4397 159.951 25.4768 170.028 21.7861C179.115 18.4578 188.402 15.4424 197.582 12.258C198.257 12.0237 198.78 11.538 199.399 11.3708C201.484 10.8679 203.569 10.3653 205.713 9.84834C205.645 8.66222 205.584 7.61972 205.524 6.57722C205.751 6.50598 205.978 6.43451 206.204 6.36327C206.925 7.14898 207.646 7.93457 208.383 8.73926C219.361 5.84753 230.461 2.92377 241.56 0C241.707 0.200205 241.853 0.400751 242 0.601297C241.314 0.943191 240.684 1.40621 239.933 1.60766C234.369 3.09738 228.766 4.50393 223.204 5.99854C218.368 7.29817 213.57 8.67904 208.55 10.0813C209.263 12.5453 209.84 14.891 210.629 17.1945C213.045 24.2459 215.583 31.2731 217.966 38.3307C218.329 39.4062 218.34 40.6169 218.123 41.7205C217.873 42.9938 216.652 43.3517 214.967 42.9075C215.633 42.578 216.572 42.3572 216.896 41.8907C217.271 41.3518 217.339 40.5514 217.135 39.9425C216.072 36.7687 214.834 33.6291 213.744 30.46C211.733 24.6192 209.783 18.7662 207.497 12.9556C207.978 15.1074 208.55 17.2501 208.924 19.4127C209.869 24.8846 210.758 30.3625 211.581 35.8453C211.696 36.609 211.314 37.4157 211.162 38.2027C210.953 38.2825 210.745 38.3626 210.537 38.4423C209.9 38.0774 208.996 37.8148 208.673 37.3296C207.382 35.393 206.221 33.4031 205.118 31.3998C204.631 30.5154 204.396 29.5512 203.762 28.6415C203.419 29.938 203.171 31.2544 202.715 32.5276C201.357 36.3147 198.308 39.0966 193.322 40.1837C188.527 41.2289 183.604 42.0724 178.661 42.5657C166.19 43.8109 153.733 45.0383 142.246 49.2628C131.98 53.0381 121.967 57.173 112.552 62.0815C111.491 62.6346 110.6 63.526 109.996 64.405C107.553 67.956 104.346 70.8067 99.0322 71.9155C98.7091 71.983 98.3611 71.9803 98.0245 72.0104C97.8138 71.8958 97.6035 71.7817 97.3932 71.6674ZM209.668 37.0235C209.935 36.9394 210.202 36.8551 210.47 36.7709C210.483 28.0477 207.729 19.6081 205.99 10.9202C204.077 11.52 202.47 12.0232 200.773 12.5551C201.752 16.068 202.597 19.3813 203.61 22.6649C204.673 26.1049 205.786 29.5415 207.103 32.9286C207.66 34.3602 208.796 35.6625 209.668 37.0235ZM108.172 64.6826C104.816 66.2965 101.465 67.9226 99.5467 70.7356C103.732 69.8384 106.281 67.5435 108.172 64.6826ZM92.0978 47.7452C91.8357 46.7224 91.6199 45.8796 91.4039 45.0367C91.2424 45.044 91.0811 45.0515 90.9195 45.0588C90.6592 46.1253 90.3989 47.1916 90.0796 48.5C90.909 48.1898 91.424 47.9969 92.0978 47.7452Z" fill="#E6E6E6"/>
<path fill-rule="evenodd" clip-rule="evenodd" d="M54.3331 22.7067C56.5439 23.3704 56.6448 24.6433 56.8025 25.7008C57.3739 29.5288 57.8605 33.3682 58.1926 37.2125C59.0235 46.8312 59.7469 56.4549 60.5265 66.0762C60.6727 67.877 60.88 69.6751 61.2052 71.4548C61.7034 66.8351 62.1171 62.2093 62.7165 57.5971C64.1054 46.9134 68.6672 37.1232 76.9295 28.3269C83.411 21.4265 90.4882 14.9316 98.5035 9.03195C99.4841 8.3101 100.524 7.58052 101.706 7.08887C102.56 6.733 103.804 6.48939 104.681 6.68778C106.09 7.00604 105.733 8.10717 105.647 8.97968C105.625 9.21261 105.499 9.44009 105.066 9.67574C104.923 9.00775 104.779 8.33976 104.562 7.32612C103.513 7.71369 102.486 7.89651 101.815 8.37009C89.9219 16.7651 79.4655 26.0509 71.7162 36.9482C67.0158 43.5574 65.2091 50.8072 63.8316 58.164C62.1099 67.3592 62.7618 76.5914 62.6446 85.8146C62.6354 86.5516 62.3061 87.2863 61.6921 88C59.7062 67.0821 58.1468 46.1862 55.12 25.3629C52.3731 35.2732 53.8084 45.4322 52.1645 55.3925C51.8474 55.4267 51.5303 55.4611 51.213 55.4957C50.9034 54.7407 50.5947 53.9858 50.2831 53.2317C49.9641 52.4582 49.6421 51.6857 49.3212 50.9128C49.138 50.8909 48.9547 50.869 48.7715 50.8473C47.6927 52.5967 46.614 54.3462 45.5353 56.096C45.2906 56.0683 45.046 56.0405 44.8016 56.0131C44.5835 55.6362 44.09 55.209 44.1906 54.8898C45.0611 52.1355 46.0387 49.4003 46.9842 46.6593C47.308 46.6874 47.6318 46.7156 47.9555 46.7437C47.9229 47.2242 47.9428 47.7111 47.8442 48.1839C47.7195 48.7824 47.4985 49.3697 47.2267 50.2659C49.6442 49.035 50.2492 50.5858 51.6036 51.7823C51.7432 48.8968 51.8284 46.4204 51.9894 43.9467C52.3789 37.961 52.7634 31.9747 53.2523 25.9933C53.3379 24.9435 53.9203 23.9176 54.3331 22.7067Z" fill="#E6E6E6"/>
<path fill-rule="evenodd" clip-rule="evenodd" d="M13.1168 62.1598C19.6529 61.4392 23.5981 58.0567 27.1325 54.3489C30.6068 50.7038 33.8219 46.8872 34.347 42.2633C34.5784 40.2258 34.399 38.0767 33.7888 36.0871C32.6511 32.3762 29.0559 31.1604 24.3425 32.5049C20.1954 33.6877 17.049 35.8053 14.3541 38.3897C5.60035 46.7848 1.12404 56.3101 1.26887 67.0354C1.30347 69.6082 1.92129 72.115 3.6732 74.3786C6.69789 78.2851 12.7271 79.7609 19.1937 78.1892C27.3609 76.2044 33.5974 72.2523 38.6562 67.1266C41.8819 63.8585 44.5043 60.329 46.4187 56.5044C46.5575 56.2268 46.7774 55.9723 46.9594 55.7073C47.1502 55.7682 47.341 55.8287 47.532 55.8894C46.3752 57.994 45.4353 60.186 44.0233 62.1866C38.8906 69.4593 31.8176 75.2582 21.5491 78.4662C17.5125 79.7272 13.3392 80.3021 9.14326 78.9799C3.89876 77.3272 1.26857 74.0926 0.430583 69.9813C-0.864516 63.6259 0.921843 57.5442 3.65553 51.5911C6.65805 45.0526 11.2202 39.2178 17.8607 34.4155C19.2298 33.4253 20.9122 32.6243 22.6036 31.9616C28.6768 29.5814 34.2538 31.8649 35.4455 36.9766C36.4996 41.4993 35.3881 45.6663 32.5545 49.6319C29.0538 54.5306 25.0559 59.1363 18.5081 62.0244C17.2652 62.5724 15.6913 62.7144 14.2435 62.9494C13.9091 63.0036 13.4656 62.6703 13.0723 62.5154C13.087 62.3969 13.1019 62.2782 13.1168 62.1598Z" fill="#E6E6E6"/>
<path fill-rule="evenodd" clip-rule="evenodd" d="M78.4502 60.1029C82.2943 59.1472 82.3051 56.6031 83.8731 54.8917C83.8531 56.8783 83.1434 58.7081 81.3368 60.156C79.6941 61.4727 77.2126 60.9329 76.8329 59.107C76.4633 57.3299 76.5759 55.4897 76.5747 53.6771C76.574 52.5947 76.7609 51.5117 76.4777 50.3434C74.2529 54.7969 72.0282 59.2506 69.8033 63.7041C69.609 63.6599 69.4146 63.6156 69.2203 63.5716C69.0223 61.9499 69.9933 60.4729 70.7154 59.0084C73.4238 53.5136 76.2421 48.0505 79.0193 42.5752C79.2825 42.6223 79.5455 42.6697 79.8083 42.7167C79.8083 43.1252 79.949 43.569 79.7869 43.9361C77.9275 48.15 77.9135 52.5363 77.7021 56.8953C77.6547 57.8739 78.1457 58.8676 78.4502 60.1029Z" fill="#E6E6E6"/>
</svg>
